<svg width="1920" height="1010" viewBox="0 0 1920 1010" fill="none" xmlns="http://www.w3.org/2000/svg">
<rect width="1928" height="1010" fill="url(#paint0_linear)"/>
<mask id="mask0" mask-type="alpha" maskUnits="userSpaceOnUse" x="0" y="0" width="1928" height="1010">
<rect width="1928" height="1010" fill="url(#paint1_linear)"/>
</mask>
<g mask="url(#mask0)">
<g filter="url(#filter0_i)">
<path d="M1464.5 -14.5003C1543.3 -72.5241 1726.62 51.83 1816.5 59.4996C1896.66 66.3401 1924.87 40.0944 1928.34 7.99931V240.418C1862.51 226.133 1787.31 176.978 1734.5 203.499C1620 260.999 1829.35 486.294 1711.18 508C1593.02 529.705 1742.78 707.028 1623.5 809C1504.22 910.972 1128.5 625.5 957.499 729.5C824.012 810.685 968.499 1024 799.499 1135C679.091 1214.08 521.28 1225.13 422.315 1207.46L-33.9523 1191.41L-33.9531 482.1C23.3079 471.163 126.814 485.945 199.499 534C290.355 594.068 283.817 806.562 464.499 795.5C611.499 786.5 590.499 597 621.999 433C648.289 296.127 799.839 288.099 910.999 367C1039.7 458.348 1152.64 487.148 1167.04 425.566C1181.44 363.983 1125.83 261.448 1167.04 214C1208.25 166.551 1247.54 174.19 1364 252C1394.1 272.111 1473.15 287.778 1497 252C1542 184.5 1364 59.4996 1464.5 -14.5003Z" fill="url(#paint2_linear)"/>
</g>
</g>
<defs>
<filter id="filter0_i" x="-113.953" y="-29.875" width="2042.29" height="1338.6" filterUnits="userSpaceOnUse" color-interpolation-filters="sRGB">
<feFlood flood-opacity="0" result="BackgroundImageFix"/>
<feBlend mode="normal" in="SourceGraphic" in2="BackgroundImageFix" result="shape"/>
<feColorMatrix in="SourceAlpha" type="matrix" values="0 0 0 0 0 0 0 0 0 0 0 0 0 0 0 0 0 0 127 0" result="hardAlpha"/>
<feOffset dx="-80" dy="94"/>
<feGaussianBlur stdDeviation="75"/>
<feComposite in2="hardAlpha" operator="arithmetic" k2="-1" k3="1"/>
<feColorMatrix type="matrix" values="0 0 0 0 0 0 0 0 0 0 0 0 0 0 0 0 0 0 0.1 0"/>
<feBlend mode="normal" in2="shape" result="effect1_innerShadow"/>
</filter>
<linearGradient id="paint0_linear" x1="964" y1="0" x2="964" y2="950.588" gradientUnits="userSpaceOnUse">
<stop stop-color="#14263C"/>
<stop offset="1" stop-color="#A9898B"/>
</linearGradient>
<linearGradient id="paint1_linear" x1="964" y1="0" x2="964" y2="950.588" gradientUnits="userSpaceOnUse">
<stop stop-color="#14263C"/>
<stop offset="1" stop-color="#A9898B"/>
</linearGradient>
<linearGradient id="paint2_linear" x1="1941" y1="6.49577" x2="-19.4198" y2="985.623" gradientUnits="userSpaceOnUse">
<stop stop-color="#192A3E"/>
<stop offset="1" stop-color="#9D8185"/>
</linearGradient>
</defs>
</svg>
